<svg version="1.1" id="Layer_1" xmlns="http://www.w3.org/2000/svg" x="0" y="0" viewBox="0 0 600 600" style="enable-background:new 0 0 600 600" xml:space="preserve"><path id="path2612" d="M186.05 500.16c-.8.52-1.85-.01-1.93-.96-.21-2.5-.44-4.97-.65-7.43l-2.13-21.26c-.05-.42.13-.84.46-1.1 1.45-1.15 3.18-2.46 5.26-3.87 1.79-1.21 3.67-2.69 5.92-4.04 2.22-1.37 4.58-2.9 7.16-4.45 2.63-1.45 5.44-3.02 8.39-4.66 3.04-1.49 6.18-3.13 9.55-4.69 6.76-3.04 14.16-6.21 22.22-8.95 7.99-2.9 16.63-5.36 25.6-7.71 9.01-2.21 18.38-4.24 27.99-5.82s19.41-2.91 29.27-3.77c4.91-.52 9.86-.78 14.75-1.14 4.92-.21 9.81-.53 14.67-.58 9.71-.32 19.29-.12 28.51.16 9.23.4 18.14.95 26.54 1.81 4.21.36 8.28.93 12.22 1.36 3.93.57 7.73 1.03 11.35 1.64 3.62.62 7.1 1.14 10.37 1.81 3.29.62 6.39 1.21 9.27 1.89 2.9.62 5.6 1.24 8.07 1.88 1.81.46 3.49.87 5.04 1.3.55.15.91.64.92 1.2l.04 5.49c0 2.29.07 4.57 0 6.87l-.12 6.9c0 .22.21.84-1.01.9l-.34.02c-.57.04-1.15-.05-1.7-.23l-7.9-2.63-9.5-1.6-10.24-1.65-10.28-1.35-10.32-1.05c-3.44-.25-6.89-.55-10.34-.76-3.46-.16-6.9-.36-10.35-.46-3.46-.05-6.9-.17-10.37-.17-3.46.05-6.91.02-10.35.13-3.46.15-6.9.21-10.34.42-6.89.4-13.76.97-20.61 1.73-6.85.79-13.67 1.75-20.45 2.9a362.524 362.524 0 0 0-40.14 9.24 365.17 365.17 0 0 0-38.7 13.64c-6.3 2.62-12.52 5.43-18.66 8.39-6.13 2.97-12.16 6.11-18.12 9.38-2.95 1.69-5.93 3.31-8.84 5.04-2.9 1.76-5.82 3.48-8.69 5.27l-1.49.96zm299.6-171.58c-9.48 1.62-17.69 2.28-24.44 2.47 3.95-3.32 7.82-6.85 11.58-10.46 4.1-4.11 8.11-8.29 11.71-12.72.91-1.1 1.82-2.18 2.69-3.3.85-1.14 1.69-2.27 2.51-3.38 1.72-2.19 3.13-4.59 4.64-6.83 1.41-2.32 2.73-4.63 3.95-6.92.56-1.18 1.12-2.34 1.67-3.48.28-.57.55-1.14.81-1.71.24-.58.46-1.16.68-1.75.89-2.32 1.82-4.52 2.38-6.79.32-1.12.63-2.21.93-3.27.27-1.08.42-2.17.63-3.21.19-1.05.39-2.07.57-3.08.08-1.02.17-2.01.25-2.98.07-.96.15-1.9.22-2.81.06-.91-.02-1.81-.04-2.65-.1-1.72-.01-3.31-.27-4.78-.22-1.45-.42-2.8-.61-4-.13-1.21-.47-2.25-.72-3.16-.25-.91-.46-1.69-.63-2.3-.34-1.25-.53-1.9-.53-1.9s.08.69.24 1.98c.07.63.17 1.43.28 2.35.11.92.29 1.98.24 3.18 0 1.19.01 2.51.01 3.94.04 1.43-.28 2.97-.42 4.61-.11.81-.15 1.66-.33 2.51-.19.85-.39 1.73-.59 2.62-.21.9-.42 1.81-.64 2.75-.32.91-.63 1.84-.96 2.8-.34.95-.63 1.93-1.02 2.9-.44.96-.87 1.93-1.32 2.91-.81 2-1.98 3.93-3.1 5.93-.29.5-.56 1.01-.86 1.5-.33.48-.65.98-.98 1.47-.65.98-1.32 1.98-2 2.97-1.44 1.95-2.96 3.9-4.56 5.84-1.71 1.88-3.29 3.87-5.19 5.67l-2.76 2.79c-.95.91-1.95 1.79-2.92 2.69-3.9 3.61-8.18 6.96-12.51 10.22-4.42 3.18-8.89 6.26-13.48 9.04-4.53 2.85-9.18 5.42-13.66 7.84-4.53 2.36-8.96 4.58-13.21 6.52-4.23 1.99-8.32 3.67-12.07 5.2-3.77 1.5-7.24 2.78-10.28 3.79-1.12.36-2.16.7-3.15 1.01-2.51-.25-5.03-.51-7.54-.73a663.23 663.23 0 0 0-27.88-1.88c-6.36-1.47-14.72-3.64-24.42-6.63-11.3-3.48-24.38-8.1-38.19-13.71-13.81-5.59-28.32-12.17-42.52-19.38-28.37-14.4-55.52-31.48-73.1-47.44-8.78-7.93-15.09-15.65-17.97-21.86-1.47-3.09-2.09-5.73-2.27-7.55-.12-.91-.11-1.61-.08-2.1.01-.47.01-.73.01-.73s-.04.24-.08.72c-.07.47-.15 1.19-.12 2.12 0 1.85.38 4.62 1.58 7.92 2.34 6.64 8.05 15.14 16.22 24.04 16.37 17.88 42.22 37.7 69.68 54.99 13.75 8.66 27.91 16.73 41.52 23.75 4.13 2.13 8.21 4.16 12.21 6.1-11.35.69-22.69 1.77-34.01 3.49-10.62 1.59-21.22 3.75-31.69 6.62-.56.02-1.1.06-1.67.07-2.29.07-4.69.16-7.2.05-1.25-.02-2.53-.06-3.83-.08-1.3-.08-2.62-.17-3.96-.27-5.37-.32-11.07-1.07-17-1.95-5.92-.97-12.05-2.13-18.28-3.58-6.23-1.38-12.57-3.04-18.91-4.72-12.69-3.41-25.43-7.19-37.61-10.26-6.09-1.54-12.04-2.9-17.76-3.89-5.7-1.07-11.21-1.64-16.29-1.88-1.29-.02-2.52-.05-3.75-.06-1.21-.04-2.42.11-3.58.16-2.33.05-4.52.46-6.57.75-2.04.35-3.92.93-5.64 1.36-1.67.65-3.21 1.19-4.56 1.78-1.29.69-2.45 1.31-3.44 1.85-.98.55-1.71 1.2-2.35 1.62-1.25.91-1.92 1.39-1.92 1.39s.73-.4 2.07-1.16c.69-.35 1.47-.9 2.5-1.32 1.03-.41 2.23-.88 3.55-1.41 1.37-.41 2.92-.75 4.57-1.19 1.71-.22 3.53-.55 5.49-.65 1.99-.04 4.06-.19 6.28.02 1.1.08 2.23.08 3.38.25 1.15.16 2.33.32 3.53.48 4.79.8 9.93 1.95 15.28 3.64 5.36 1.6 10.92 3.58 16.64 5.78 11.46 4.39 23.56 9.61 35.92 14.57 6.21 2.46 12.43 4.91 18.71 7.12 6.24 2.25 12.55 4.24 18.73 6.04.06.01.11.04.17.05-2.68 1.45-5.33 2.99-7.93 4.66-5.89 3.77-11.5 8.07-16.61 13.01-.38.36-.74.75-1.12 1.13-7.83 1.05-17.93 1.96-30.07 2.07-16.06.16-35.69-1.19-57.71-5.52-10.97-2.16-22.67-5.06-34.49-8.84-1.53-.5-3.08-1.01-4.63-1.52l-2.34-.76-1.94-.7a56.777 56.777 0 0 1-7.78-3.64c-4.98-2.82-9.48-6.5-13.15-11.01-7.41-8.96-11.31-21.34-11.1-34.48.17-13.12 4.17-26.97 11.74-38.92 3.77-5.94 8.51-11.47 13.92-15.88 5.88-4.73 12.55-9.14 19.57-13.25 14.06-8.29 29.82-15.46 45.85-24.43 4.22-2.39 8.46-4.92 12.66-7.67-3.09 8.74-6.76 18.44-10.85 28.02-1.53 3.64-3.14 7.24-4.78 10.77-1.64 3.53-3.32 6.96-5.01 10.26-1.71 3.29-3.43 6.43-5.14 9.36-1.72 2.93-3.43 5.66-5.09 8.12-.85 1.21-1.65 2.4-2.45 3.49-.82 1.08-1.6 2.11-2.33 3.08-1.55 1.85-2.9 3.5-4.13 4.74-1.18 1.31-2.22 2.21-2.91 2.85-.69.64-1.07.98-1.07.98l1.19-.84c.78-.55 1.95-1.32 3.3-2.47 1.42-1.09 2.98-2.56 4.81-4.24.87-.88 1.81-1.82 2.78-2.8.97-1.01 1.93-2.1 2.96-3.21 2.01-2.28 4.12-4.82 6.27-7.56 2.13-2.75 4.3-5.72 6.5-8.81 2.16-3.12 4.34-6.38 6.49-9.73 2.13-3.36 4.27-6.8 6.32-10.27 8.27-13.89 15.65-28.25 20.94-39.13 2.45-5.04 4.44-9.29 5.88-12.46 2.87-3.21 5.55-6.62 7.93-10.29l.93-1.41 1.03-1.64 1.75-2.75c1.18-1.83 2.38-3.66 3.59-5.47 2.44-3.62 4.96-7.2 7.56-10.73 5.2-7.07 10.75-13.91 16.63-20.46 11.76-13.08 24.96-25.05 39.61-34.25 14.58-9.18 30.8-15.38 46.83-15.69 7.99-.19 15.86 1.12 23.37 3.73 3.75 1.31 7.42 2.96 10.96 4.91 1.77.97 3.52 2.01 5.24 3.13 1.71 1.12 3.43 2.3 4.92 3.43.72.5 1.71 1.31 2.61 2.01l2.72 2.15c1.99 1.6 4.04 3.12 6.11 4.58.56.4 1.14.76 1.71 1.16l-.78.53s.47.57 1.38 1.64c.98 1.2 2.35 2.68 4.09 4.57 1.78 1.83 3.89 4.1 6.45 6.5 1.27 1.21 2.63 2.5 4.05 3.84 1.48 1.3 3.02 2.65 4.63 4.09 1.6 1.44 3.32 2.87 5.13 4.3 1.81 1.45 3.66 2.95 5.58 4.49 1.96 1.45 3.99 2.96 6.06 4.5 1.03.76 2.09 1.53 3.14 2.3 1.09.73 2.19 1.48 3.3 2.22 2.22 1.49 4.46 2.99 6.74 4.52 2.34 1.42 4.73 2.86 7.12 4.3 4.72 2.98 9.82 5.54 14.79 8.22 2.47 1.38 5.06 2.56 7.61 3.73 2.56 1.19 5.1 2.36 7.63 3.54l1.89.87 1.94.76c1.29.51 2.56 1.01 3.83 1.5 2.53.99 5.03 1.99 7.5 2.96 2.42 1.04 4.96 1.72 7.36 2.53 2.41.79 4.79 1.55 7.08 2.3 4.55 1.62 9.07 2.55 13.13 3.65 2.04.52 3.99 1.02 5.86 1.49.92.24 1.83.47 2.7.69.9.17 1.76.33 2.61.48 3.36.63 6.29 1.18 8.7 1.62 4.81.9 7.55 1.41 7.55 1.41s-2.67-.81-7.33-2.25c-2.33-.72-5.15-1.59-8.4-2.58-.81-.25-1.65-.51-2.5-.78-.84-.32-1.71-.64-2.59-.98-1.77-.68-3.64-1.38-5.58-2.12-3.87-1.53-8.15-2.92-12.41-5.02-2.16-.98-4.38-1.99-6.63-3.02-2.24-1.07-4.61-1.99-6.85-3.27-2.27-1.21-4.58-2.44-6.92-3.69-1.16-.62-2.34-1.25-3.52-1.87l-1.77-.95-1.72-1.05c-2.29-1.41-4.61-2.81-6.92-4.23-2.33-1.41-4.66-2.8-6.86-4.4-4.46-3.12-9.01-6.06-13.15-9.42-2.1-1.62-4.18-3.24-6.24-4.82-1.98-1.69-3.93-3.35-5.84-4.98-.96-.82-1.9-1.62-2.85-2.42l-2.68-2.5c-.08-.07-.16-.15-.24-.23 15.68 5.63 31.5 9.72 47.04 13.17 18.25 4.04 36.16 7.14 53.39 10.51 17.17 3.38 33.8 6.95 48.4 12.24 3.64 1.32 7.13 2.76 10.41 4.33 3.27 1.56 6.4 3.31 9.02 5.06l1.29.86.32.22c.16.11-.22-.15.08.06l.58.42 2.35 1.7c1.58 1.13 3.12 2.25 4.59 3.44 3.04 2.3 5.9 4.7 8.72 7.12 11.13 9.65 20.18 20.38 25.14 31.25 2.56 5.42 3.82 10.83 4.21 16.03.1 2.59.01 5.16-.36 7.67-.45 2.51-.96 4.99-1.88 7.41-1.67 4.85-4.41 9.48-7.61 13.81-3.29 4.3-7.15 8.29-11.3 11.93-8.34 7.26-17.78 13.08-27.12 17.75-18.74 9.41-37.03 14.31-51.98 16.92m-19.59 91.95c.01.3-.01.61 0 .9-.81-.22-1.61-.42-2.47-.65-2.58-.72-5.41-1.38-8.41-2.06-3.01-.73-6.22-1.39-9.61-2.07-3.38-.73-6.97-1.32-10.7-1.99-3.73-.67-7.64-1.19-11.67-1.83-4.05-.5-8.22-1.13-12.54-1.54-8.61-.98-17.72-1.66-27.14-2.18-9.43-.4-19.18-.7-29.08-.52-4.96 0-9.94.27-14.95.41-4.99.3-10.03.51-15.03.97-10.03.75-20 1.99-29.77 3.47-9.77 1.48-19.31 3.43-28.46 5.55-9.12 2.28-17.89 4.66-26.02 7.49-8.17 2.68-15.69 5.78-22.55 8.78-3.41 1.54-6.61 3.15-9.69 4.62-2.99 1.61-5.83 3.15-8.51 4.58-2.61 1.54-5.01 3.04-7.26 4.39-2.25 1.32-4.17 2.8-5.98 3.99-2.3 1.5-4.16 2.91-5.71 4.11l-.11-2.39c-.65-15.65-1.02-31.2-.23-46.52 5.98-8.9 14.17-16.43 23.65-22.46 10.09-6.46 21.52-11.31 33.4-15.04 11.89-3.73 24.28-6.39 36.84-8.27 12.56-1.92 25.3-3.02 38.1-3.66 25.62-1.19 51.43-.35 77.09 1.93 12.83 1.14 25.63 2.65 38.33 4.57 6.35.96 12.68 2.02 18.91 3.25 3.12.61 6.22 1.25 9.25 1.95 1.52.35 3.01.72 4.46 1.1.16.05.32.08.48.13.28.84.55 1.67.79 2.59.29.97.53 2 .76 3.05.23 1.04.48 2.06.68 3.15l.59 3.2.48 3.27c.35 2.17.57 4.4.81 6.62.28 2.19.4 4.46.58 6.7l.24 3.36.13 3.39c.07 2.27.23 4.51.23 6.79l.09 6.87" style="fill:#e9302d"/></svg>