<svg version="1.1" id="Layer_1" xmlns="http://www.w3.org/2000/svg" x="0" y="0" viewBox="0 0 595.5 414" style="enable-background:new 0 0 595.5 414" xml:space="preserve"><path id="path2612" d="M186.1 409.2c-.8.5-1.9 0-1.9-1-.2-2.5-.4-5-.6-7.4l-2.1-21.3c-.1-.4.1-.8.5-1.1 1.4-1.1 3.2-2.5 5.3-3.9 1.8-1.2 3.7-2.7 5.9-4 2.2-1.4 4.6-2.9 7.2-4.5 2.6-1.5 5.4-3 8.4-4.7 3-1.5 6.2-3.1 9.6-4.7 6.8-3 14.2-6.2 22.2-9 8-2.9 16.6-5.4 25.6-7.7 9-2.2 18.4-4.2 28-5.8 9.6-1.6 19.4-2.9 29.3-3.8 4.9-.5 9.9-.8 14.8-1.1 4.9-.2 9.8-.5 14.7-.6 9.7-.3 19.3-.1 28.5.2 9.2.4 18.1 1 26.5 1.8 4.2.4 8.3.9 12.2 1.4 3.9.6 7.7 1 11.4 1.6 3.6.6 7.1 1.1 10.4 1.8 3.3.6 6.4 1.2 9.3 1.9 2.9.6 5.6 1.2 8.1 1.9 1.8.5 3.5.9 5 1.3.5.1.9.6.9 1.2v5.5c0 2.3.1 4.6 0 6.9l-.1 6.9c0 .2.2.8-1 .9h-.3c-.6 0-1.1 0-1.7-.2l-7.9-2.6-9.5-1.6-10.2-1.6-10.3-1.4-10.3-1c-3.4-.2-6.9-.5-10.3-.8-3.5-.2-6.9-.4-10.4-.5-3.5 0-6.9-.2-10.4-.2s-6.9 0-10.4.1-6.9.2-10.3.4c-6.9.4-13.8 1-20.6 1.7-6.9.8-13.7 1.8-20.5 2.9-13.6 2.3-27 5.4-40.1 9.2-13.2 3.8-26.1 8.4-38.7 13.6-6.3 2.6-12.5 5.4-18.7 8.4-6.1 3-12.2 6.1-18.1 9.4-2.9 1.7-5.9 3.3-8.8 5-2.9 1.8-5.8 3.5-8.7 5.3l-1.9 1.2zm299.5-171.6c-9.5 1.6-17.7 2.3-24.4 2.5 4-3.3 7.8-6.9 11.6-10.5 4.1-4.1 8.1-8.3 11.7-12.7l2.7-3.3c.9-1.1 1.7-2.3 2.5-3.4 1.7-2.2 3.1-4.6 4.6-6.8 1.4-2.3 2.7-4.6 4-6.9.6-1.2 1.1-2.3 1.7-3.5.3-.6.5-1.1.8-1.7.2-.6.5-1.2.7-1.8.9-2.3 1.8-4.5 2.4-6.8l.9-3.3c.3-1.1.4-2.2.6-3.2.2-1 .4-2.1.6-3.1.1-1 .2-2 .2-3 .1-1 .1-1.9.2-2.8.1-.9 0-1.8 0-2.6-.1-1.7 0-3.3-.3-4.8-.2-1.4-.4-2.8-.6-4-.1-1.2-.5-2.2-.7-3.2s-.5-1.7-.6-2.3c-.3-1.2-.5-1.9-.5-1.9s.1.7.2 2c.1.6.2 1.4.3 2.4.1.9.3 2 .2 3.2v3.9c0 1.4-.3 3-.4 4.6-.1.8-.1 1.7-.3 2.5-.2.9-.4 1.7-.6 2.6-.2.9-.4 1.8-.6 2.8-.3.9-.6 1.8-1 2.8-.3 1-.6 1.9-1 2.9s-.9 1.9-1.3 2.9c-.8 2-2 3.9-3.1 5.9l-.9 1.5c-.3.5-.6 1-1 1.5-.6 1-1.3 2-2 3-1.4 2-3 3.9-4.6 5.8-1.7 1.9-3.3 3.9-5.2 5.7-.9.9-1.8 1.9-2.8 2.8-1 .9-2 1.8-2.9 2.7-3.9 3.6-8.2 7-12.5 10.2-4.4 3.2-8.9 6.3-13.5 9-4.5 2.9-9.2 5.4-13.7 7.8-4.5 2.4-9 4.6-13.2 6.5-4.2 2-8.3 3.7-12.1 5.2-3.8 1.5-7.2 2.8-10.3 3.8-1.1.4-2.2.7-3.1 1-2.5-.2-5-.5-7.5-.7-9.3-.8-18.6-1.5-27.9-1.9-6.4-1.5-14.7-3.6-24.4-6.6-11.3-3.5-24.4-8.1-38.2-13.7-13.8-5.6-28.3-12.2-42.5-19.4-28.4-14.4-55.5-31.5-73.1-47.4-8.8-7.9-15.1-15.6-18-21.9-1.5-3.1-2.1-5.7-2.3-7.6-.1-.9-.1-1.6-.1-2.1v-.7s0 .2-.1.7c-.1.5-.1 1.2-.1 2.1 0 1.9.4 4.6 1.6 7.9 2.3 6.6 8.1 15.1 16.2 24 16.4 17.9 42.2 37.7 69.7 55 13.8 8.7 27.9 16.7 41.5 23.8 4.1 2.1 8.2 4.2 12.2 6.1-11.4.7-22.7 1.8-34 3.5-10.6 1.6-21.2 3.8-31.7 6.6-.6 0-1.1.1-1.7.1-2.3.1-4.7.2-7.2 0-1.2 0-2.5-.1-3.8-.1-1.3-.1-2.6-.2-4-.3-5.4-.3-11.1-1.1-17-2-5.9-1-12.1-2.1-18.3-3.6-6.2-1.4-12.6-3-18.9-4.7-12.7-3.4-25.4-7.2-37.6-10.3-6.1-1.5-12-2.9-17.8-3.9-5.7-1.1-11.2-1.6-16.3-1.9-1.3 0-2.5 0-3.8-.1-1.2 0-2.4.1-3.6.2-2.3 0-4.5.5-6.6.8-2 .4-3.9.9-5.6 1.4-1.7.6-3.2 1.2-4.6 1.8-1.3.7-2.4 1.3-3.4 1.9-1 .5-1.7 1.2-2.3 1.6-1.2.9-1.9 1.4-1.9 1.4l2.1-1.2c.7-.4 1.5-.9 2.5-1.3s2.2-.9 3.6-1.4c1.4-.4 2.9-.8 4.6-1.2 1.7-.2 3.5-.5 5.5-.6 2 0 4.1-.2 6.3 0 1.1.1 2.2.1 3.4.2 1.2.2 2.3.3 3.5.5 4.8.8 9.9 2 15.3 3.6s10.9 3.6 16.6 5.8c11.5 4.4 23.6 9.6 35.9 14.6 6.2 2.5 12.4 4.9 18.7 7.1 6.2 2.2 12.6 4.2 18.7 6h.2c-2.7 1.5-5.3 3-7.9 4.7-5.9 3.8-11.5 8.1-16.6 13-.4.4-.7.8-1.1 1.1-7.8 1-17.9 2-30.1 2.1-16.1.2-35.7-1.2-57.7-5.5-11-2.2-22.7-5.1-34.5-8.8-1.5-.5-3.1-1-4.6-1.5l-2.3-.8-1.9-.7c-2.7-1-5.3-2.2-7.8-3.6-5-2.8-9.5-6.5-13.1-11-7.4-9-11.3-21.3-11.1-34.5.2-13.1 4.2-27 11.7-38.9 3.8-5.9 8.5-11.5 13.9-15.9 5.9-4.7 12.5-9.1 19.6-13.2 14.1-8.3 29.8-15.5 45.9-24.4 4.2-2.4 8.5-4.9 12.7-7.7-3.1 8.7-6.8 18.4-10.8 28-1.5 3.6-3.1 7.2-4.8 10.8s-3.3 7-5 10.3c-1.7 3.3-3.4 6.4-5.1 9.4-1.7 2.9-3.4 5.7-5.1 8.1-.8 1.2-1.7 2.4-2.4 3.5-.8 1.1-1.6 2.1-2.3 3.1-1.6 1.9-2.9 3.5-4.1 4.7-1.2 1.3-2.2 2.2-2.9 2.9s-1.1 1-1.1 1 .4-.3 1.2-.8 1.9-1.3 3.3-2.5c1.4-1.1 3-2.6 4.8-4.2l2.8-2.8c1-1 1.9-2.1 3-3.2 2-2.3 4.1-4.8 6.3-7.6 2.1-2.8 4.3-5.7 6.5-8.8 2.2-3.1 4.3-6.4 6.5-9.7 2.1-3.4 4.3-6.8 6.3-10.3 8.3-13.9 15.6-28.2 20.9-39.1 2.4-5 4.4-9.3 5.9-12.5 2.9-3.2 5.6-6.6 7.9-10.3l.9-1.4 1-1.6 1.8-2.8c1.2-1.8 2.4-3.7 3.6-5.5 2.4-3.6 5-7.2 7.6-10.7 5.2-7.1 10.8-13.9 16.6-20.5 11.8-13.1 25-25.1 39.6-34.2 14.6-9.2 30.8-15.4 46.8-15.7 8-.2 15.9 1.1 23.4 3.7 3.8 1.3 7.4 3 11 4.9 1.8 1 3.5 2 5.2 3.1 1.7 1.1 3.4 2.3 4.9 3.4.7.5 1.7 1.3 2.6 2l2.7 2.2c2 1.6 4 3.1 6.1 4.6.6.4 1.1.8 1.7 1.2l-.8.5s.5.6 1.4 1.6c1 1.2 2.4 2.7 4.1 4.6 1.8 1.8 3.9 4.1 6.5 6.5 1.3 1.2 2.6 2.5 4 3.8 1.5 1.3 3 2.6 4.6 4.1 1.6 1.4 3.3 2.9 5.1 4.3 1.8 1.4 3.7 2.9 5.6 4.5 2 1.4 4 3 6.1 4.5 1 .8 2.1 1.5 3.1 2.3 1.1.7 2.2 1.5 3.3 2.2 2.2 1.5 4.5 3 6.7 4.5 2.3 1.4 4.7 2.9 7.1 4.3 4.7 3 9.8 5.5 14.8 8.2 2.5 1.4 5.1 2.6 7.6 3.7 2.6 1.2 5.1 2.4 7.6 3.5l1.9.9 1.9.8c1.3.5 2.6 1 3.8 1.5l7.5 3c2.4 1 5 1.7 7.4 2.5 2.4.8 4.8 1.6 7.1 2.3 4.5 1.6 9.1 2.6 13.1 3.6 2 .5 4 1 5.9 1.5.9.2 1.8.5 2.7.7.9.2 1.8.3 2.6.5 3.4.6 6.3 1.2 8.7 1.6 4.8.9 7.5 1.4 7.5 1.4s-2.7-.8-7.3-2.2c-2.3-.7-5.1-1.6-8.4-2.6-.8-.2-1.6-.5-2.5-.8-.8-.3-1.7-.6-2.6-1-1.8-.7-3.6-1.4-5.6-2.1-3.9-1.5-8.1-2.9-12.4-5l-6.6-3c-2.2-1.1-4.6-2-6.9-3.3-2.3-1.2-4.6-2.4-6.9-3.7-1.2-.6-2.3-1.2-3.5-1.9l-1.8-.9-1.7-1.1-6.9-4.2c-2.3-1.4-4.7-2.8-6.9-4.4-4.5-3.1-9-6.1-13.1-9.4-2.1-1.6-4.2-3.2-6.2-4.8-2-1.7-3.9-3.4-5.8-5-1-.8-1.9-1.6-2.9-2.4-.9-.9-1.8-1.7-2.7-2.5-.1-.1-.2-.1-.2-.2 15.7 5.6 31.5 9.7 47 13.2 18.2 4 36.2 7.1 53.4 10.5 17.2 3.4 33.8 6.9 48.4 12.2 3.6 1.3 7.1 2.8 10.4 4.3 3.3 1.6 6.4 3.3 9 5.1l1.3.9.3.2c.2.1-.2-.1.1.1l.6.4 2.3 1.7c1.6 1.1 3.1 2.2 4.6 3.4 3 2.3 5.9 4.7 8.7 7.1 11.1 9.6 20.2 20.4 25.1 31.2 2.6 5.4 3.8 10.8 4.2 16 .1 2.6 0 5.2-.4 7.7-.5 2.5-1 5-1.9 7.4-1.7 4.9-4.4 9.5-7.6 13.8-3.3 4.3-7.2 8.3-11.3 11.9-8.3 7.3-17.8 13.1-27.1 17.8-18.7 9.6-37 14.5-52 17.1m-19.5 91.9v.9c-.8-.2-1.6-.4-2.5-.6-2.6-.7-5.4-1.4-8.4-2.1-3-.7-6.2-1.4-9.6-2.1-3.4-.7-7-1.3-10.7-2-3.7-.7-7.6-1.2-11.7-1.8-4-.5-8.2-1.1-12.5-1.5-8.6-1-17.7-1.7-27.1-2.2-9.4-.4-19.2-.7-29.1-.5-5 0-9.9.3-15 .4-5 .3-10 .5-15 1-10 .8-20 2-29.8 3.5s-19.3 3.4-28.5 5.5c-9.1 2.3-17.9 4.7-26 7.5-8.2 2.7-15.7 5.8-22.6 8.8-3.4 1.5-6.6 3.1-9.7 4.6-3 1.6-5.8 3.1-8.5 4.6-2.6 1.5-5 3-7.3 4.4-2.2 1.3-4.2 2.8-6 4-2.3 1.5-4.2 2.9-5.7 4.1l-.1-2.4c-.6-15.6-1-31.2-.2-46.5 6-8.9 14.2-16.4 23.6-22.5 10.1-6.5 21.5-11.3 33.4-15 11.9-3.7 24.3-6.4 36.8-8.3 12.6-1.9 25.3-3 38.1-3.7 25.6-1.2 51.4-.4 77.1 1.9 12.8 1.1 25.6 2.6 38.3 4.6 6.4 1 12.7 2 18.9 3.2 3.1.6 6.2 1.2 9.2 2 1.5.4 3 .7 4.5 1.1.2 0 .3.1.5.1.3.8.5 1.7.8 2.6.3 1 .5 2 .8 3 .2 1 .5 2.1.7 3.1l.6 3.2.5 3.3c.4 2.2.6 4.4.8 6.6.3 2.2.4 4.5.6 6.7l.2 3.4.1 3.4c.1 2.3.2 4.5.2 6.8l.3 6.9" style="fill:#ffb400"/></svg>