<?xml version="1.0" encoding="utf-8"?>
<!-- Generator: Adobe Illustrator 27.1.0, SVG Export Plug-In . SVG Version: 6.00 Build 0)  -->
<svg version="1.1" id="Layer_1" xmlns="http://www.w3.org/2000/svg" xmlns:xlink="http://www.w3.org/1999/xlink" x="0px" y="0px"
	 viewBox="0 0 600 600" style="enable-background:new 0 0 600 600;" xml:space="preserve">
<style type="text/css">
	.st0{fill:#E9302D;}
</style>
<path id="path2612" class="st0" d="M186.05,500.16c-0.8,0.52-1.85-0.01-1.93-0.96c-0.21-2.5-0.44-4.97-0.65-7.43l-2.13-21.26
	c-0.05-0.42,0.13-0.84,0.46-1.1c1.45-1.15,3.18-2.46,5.26-3.87c1.79-1.21,3.67-2.69,5.92-4.04c2.22-1.37,4.58-2.9,7.16-4.45
	c2.63-1.45,5.44-3.02,8.39-4.66c3.04-1.49,6.18-3.13,9.55-4.69c6.76-3.04,14.16-6.21,22.22-8.95c7.99-2.9,16.63-5.36,25.6-7.71
	c9.01-2.21,18.38-4.24,27.99-5.82c9.61-1.58,19.41-2.91,29.27-3.77c4.91-0.52,9.86-0.78,14.75-1.14c4.92-0.21,9.81-0.53,14.67-0.58
	c9.71-0.32,19.29-0.12,28.51,0.16c9.23,0.4,18.14,0.95,26.54,1.81c4.21,0.36,8.28,0.93,12.22,1.36c3.93,0.57,7.73,1.03,11.35,1.64
	c3.62,0.62,7.1,1.14,10.37,1.81c3.29,0.62,6.39,1.21,9.27,1.89c2.9,0.62,5.6,1.24,8.07,1.88c1.81,0.46,3.49,0.87,5.04,1.3
	c0.55,0.15,0.91,0.64,0.92,1.2l0.04,5.49c0,2.29,0.07,4.57,0,6.87l-0.12,6.9c0,0.22,0.21,0.84-1.01,0.9l-0.34,0.02
	c-0.57,0.04-1.15-0.05-1.7-0.23l-7.9-2.63l-9.5-1.6l-10.24-1.65l-10.28-1.35l-10.32-1.05c-3.44-0.25-6.89-0.55-10.34-0.76
	c-3.46-0.16-6.9-0.36-10.35-0.46c-3.46-0.05-6.9-0.17-10.37-0.17c-3.46,0.05-6.91,0.02-10.35,0.13c-3.46,0.15-6.9,0.21-10.34,0.42
	c-6.89,0.4-13.76,0.97-20.61,1.73c-6.85,0.79-13.67,1.75-20.45,2.9c-13.57,2.32-26.97,5.41-40.14,9.24
	c-13.17,3.82-26.1,8.39-38.7,13.64c-6.3,2.62-12.52,5.43-18.66,8.39c-6.13,2.97-12.16,6.11-18.12,9.38
	c-2.95,1.69-5.93,3.31-8.84,5.04c-2.9,1.76-5.82,3.48-8.69,5.27L186.05,500.16z M485.65,328.58c-9.48,1.62-17.69,2.28-24.44,2.47
	c3.95-3.32,7.82-6.85,11.58-10.46c4.1-4.11,8.11-8.29,11.71-12.72c0.91-1.1,1.82-2.18,2.69-3.3c0.85-1.14,1.69-2.27,2.51-3.38
	c1.72-2.19,3.13-4.59,4.64-6.83c1.41-2.32,2.73-4.63,3.95-6.92c0.56-1.18,1.12-2.34,1.67-3.48c0.28-0.57,0.55-1.14,0.81-1.71
	c0.24-0.58,0.46-1.16,0.68-1.75c0.89-2.32,1.82-4.52,2.38-6.79c0.32-1.12,0.63-2.21,0.93-3.27c0.27-1.08,0.42-2.17,0.63-3.21
	c0.19-1.05,0.39-2.07,0.57-3.08c0.08-1.02,0.17-2.01,0.25-2.98c0.07-0.96,0.15-1.9,0.22-2.81c0.06-0.91-0.02-1.81-0.04-2.65
	c-0.1-1.72-0.01-3.31-0.27-4.78c-0.22-1.45-0.42-2.8-0.61-4c-0.13-1.21-0.47-2.25-0.72-3.16c-0.25-0.91-0.46-1.69-0.63-2.3
	c-0.34-1.25-0.53-1.9-0.53-1.9s0.08,0.69,0.24,1.98c0.07,0.63,0.17,1.43,0.28,2.35c0.11,0.92,0.29,1.98,0.24,3.18
	c0,1.19,0.01,2.51,0.01,3.94c0.04,1.43-0.28,2.97-0.42,4.61c-0.11,0.81-0.15,1.66-0.33,2.51c-0.19,0.85-0.39,1.73-0.59,2.62
	c-0.21,0.9-0.42,1.81-0.64,2.75c-0.32,0.91-0.63,1.84-0.96,2.8c-0.34,0.95-0.63,1.93-1.02,2.9c-0.44,0.96-0.87,1.93-1.32,2.91
	c-0.81,2-1.98,3.93-3.1,5.93c-0.29,0.5-0.56,1.01-0.86,1.5c-0.33,0.48-0.65,0.98-0.98,1.47c-0.65,0.98-1.32,1.98-2,2.97
	c-1.44,1.95-2.96,3.9-4.56,5.84c-1.71,1.88-3.29,3.87-5.19,5.67c-0.91,0.92-1.83,1.85-2.76,2.79c-0.95,0.91-1.95,1.79-2.92,2.69
	c-3.9,3.61-8.18,6.96-12.51,10.22c-4.42,3.18-8.89,6.26-13.48,9.04c-4.53,2.85-9.18,5.42-13.66,7.84
	c-4.53,2.36-8.96,4.58-13.21,6.52c-4.23,1.99-8.32,3.67-12.07,5.2c-3.77,1.5-7.24,2.78-10.28,3.79c-1.12,0.36-2.16,0.7-3.15,1.01
	c-2.51-0.25-5.03-0.51-7.54-0.73c-9.27-0.82-18.56-1.45-27.88-1.88c-6.36-1.47-14.72-3.64-24.42-6.63
	c-11.3-3.48-24.38-8.1-38.19-13.71c-13.81-5.59-28.32-12.17-42.52-19.38c-28.37-14.4-55.52-31.48-73.1-47.44
	c-8.78-7.93-15.09-15.65-17.97-21.86c-1.47-3.09-2.09-5.73-2.27-7.55c-0.12-0.91-0.11-1.61-0.08-2.1c0.01-0.47,0.01-0.73,0.01-0.73
	s-0.04,0.24-0.08,0.72c-0.07,0.47-0.15,1.19-0.12,2.12c0,1.85,0.38,4.62,1.58,7.92c2.34,6.64,8.05,15.14,16.22,24.04
	c16.37,17.88,42.22,37.7,69.68,54.99c13.75,8.66,27.91,16.73,41.52,23.75c4.13,2.13,8.21,4.16,12.21,6.1
	c-11.35,0.69-22.69,1.77-34.01,3.49c-10.62,1.59-21.22,3.75-31.69,6.62c-0.56,0.02-1.1,0.06-1.67,0.07
	c-2.29,0.07-4.69,0.16-7.2,0.05c-1.25-0.02-2.53-0.06-3.83-0.08c-1.3-0.08-2.62-0.17-3.96-0.27c-5.37-0.32-11.07-1.07-17-1.95
	c-5.92-0.97-12.05-2.13-18.28-3.58c-6.23-1.38-12.57-3.04-18.91-4.72c-12.69-3.41-25.43-7.19-37.61-10.26
	c-6.09-1.54-12.04-2.9-17.76-3.89c-5.7-1.07-11.21-1.64-16.29-1.88c-1.29-0.02-2.52-0.05-3.75-0.06c-1.21-0.04-2.42,0.11-3.58,0.16
	c-2.33,0.05-4.52,0.46-6.57,0.75c-2.04,0.35-3.92,0.93-5.64,1.36c-1.67,0.65-3.21,1.19-4.56,1.78c-1.29,0.69-2.45,1.31-3.44,1.85
	c-0.98,0.55-1.71,1.2-2.35,1.62c-1.25,0.91-1.92,1.39-1.92,1.39s0.73-0.4,2.07-1.16c0.69-0.35,1.47-0.9,2.5-1.32
	c1.03-0.41,2.23-0.88,3.55-1.41c1.37-0.41,2.92-0.75,4.57-1.19c1.71-0.22,3.53-0.55,5.49-0.65c1.99-0.04,4.06-0.19,6.28,0.02
	c1.1,0.08,2.23,0.08,3.38,0.25c1.15,0.16,2.33,0.32,3.53,0.48c4.79,0.8,9.93,1.95,15.28,3.64c5.36,1.6,10.92,3.58,16.64,5.78
	c11.46,4.39,23.56,9.61,35.92,14.57c6.21,2.46,12.43,4.91,18.71,7.12c6.24,2.25,12.55,4.24,18.73,6.04
	c0.06,0.01,0.11,0.04,0.17,0.05c-2.68,1.45-5.33,2.99-7.93,4.66c-5.89,3.77-11.5,8.07-16.61,13.01c-0.38,0.36-0.74,0.75-1.12,1.13
	c-7.83,1.05-17.93,1.96-30.07,2.07c-16.06,0.16-35.69-1.19-57.71-5.52c-10.97-2.16-22.67-5.06-34.49-8.84
	c-1.53-0.5-3.08-1.01-4.63-1.52l-2.34-0.76l-1.94-0.7c-2.68-1.02-5.29-2.23-7.78-3.64c-4.98-2.82-9.48-6.5-13.15-11.01
	c-7.41-8.96-11.31-21.34-11.1-34.48c0.17-13.12,4.17-26.97,11.74-38.92c3.77-5.94,8.51-11.47,13.92-15.88
	c5.88-4.73,12.55-9.14,19.57-13.25c14.06-8.29,29.82-15.46,45.85-24.43c4.22-2.39,8.46-4.92,12.66-7.67
	c-3.09,8.74-6.76,18.44-10.85,28.02c-1.53,3.64-3.14,7.24-4.78,10.77c-1.64,3.53-3.32,6.96-5.01,10.26
	c-1.71,3.29-3.43,6.43-5.14,9.36c-1.72,2.93-3.43,5.66-5.09,8.12c-0.85,1.21-1.65,2.4-2.45,3.49c-0.82,1.08-1.6,2.11-2.33,3.08
	c-1.55,1.85-2.9,3.5-4.13,4.74c-1.18,1.31-2.22,2.21-2.91,2.85c-0.69,0.64-1.07,0.98-1.07,0.98s0.41-0.29,1.19-0.84
	c0.78-0.55,1.95-1.32,3.3-2.47c1.42-1.09,2.98-2.56,4.81-4.24c0.87-0.88,1.81-1.82,2.78-2.8c0.97-1.01,1.93-2.1,2.96-3.21
	c2.01-2.28,4.12-4.82,6.27-7.56c2.13-2.75,4.3-5.72,6.5-8.81c2.16-3.12,4.34-6.38,6.49-9.73c2.13-3.36,4.27-6.8,6.32-10.27
	c8.27-13.89,15.65-28.25,20.94-39.13c2.45-5.04,4.44-9.29,5.88-12.46c2.87-3.21,5.55-6.62,7.93-10.29l0.93-1.41l1.03-1.64l1.75-2.75
	c1.18-1.83,2.38-3.66,3.59-5.47c2.44-3.62,4.96-7.2,7.56-10.73c5.2-7.07,10.75-13.91,16.63-20.46
	c11.76-13.08,24.96-25.05,39.61-34.25c14.58-9.18,30.8-15.38,46.83-15.69c7.99-0.19,15.86,1.12,23.37,3.73
	c3.75,1.31,7.42,2.96,10.96,4.91c1.77,0.97,3.52,2.01,5.24,3.13c1.71,1.12,3.43,2.3,4.92,3.43c0.72,0.5,1.71,1.31,2.61,2.01
	l2.72,2.15c1.99,1.6,4.04,3.12,6.11,4.58c0.56,0.4,1.14,0.76,1.71,1.16l-0.78,0.53c0,0,0.47,0.57,1.38,1.64
	c0.98,1.2,2.35,2.68,4.09,4.57c1.78,1.83,3.89,4.1,6.45,6.5c1.27,1.21,2.63,2.5,4.05,3.84c1.48,1.3,3.02,2.65,4.63,4.09
	c1.6,1.44,3.32,2.87,5.13,4.3c1.81,1.45,3.66,2.95,5.58,4.49c1.96,1.45,3.99,2.96,6.06,4.5c1.03,0.76,2.09,1.53,3.14,2.3
	c1.09,0.73,2.19,1.48,3.3,2.22c2.22,1.49,4.46,2.99,6.74,4.52c2.34,1.42,4.73,2.86,7.12,4.3c4.72,2.98,9.82,5.54,14.79,8.22
	c2.47,1.38,5.06,2.56,7.61,3.73c2.56,1.19,5.1,2.36,7.63,3.54l1.89,0.87l1.94,0.76c1.29,0.51,2.56,1.01,3.83,1.5
	c2.53,0.99,5.03,1.99,7.5,2.96c2.42,1.04,4.96,1.72,7.36,2.53c2.41,0.79,4.79,1.55,7.08,2.3c4.55,1.62,9.07,2.55,13.13,3.65
	c2.04,0.52,3.99,1.02,5.86,1.49c0.92,0.24,1.83,0.47,2.7,0.69c0.9,0.17,1.76,0.33,2.61,0.48c3.36,0.63,6.29,1.18,8.7,1.62
	c4.81,0.9,7.55,1.41,7.55,1.41s-2.67-0.81-7.33-2.25c-2.33-0.72-5.15-1.59-8.4-2.58c-0.81-0.25-1.65-0.51-2.5-0.78
	c-0.84-0.32-1.71-0.64-2.59-0.98c-1.77-0.68-3.64-1.38-5.58-2.12c-3.87-1.53-8.15-2.92-12.41-5.02c-2.16-0.98-4.38-1.99-6.63-3.02
	c-2.24-1.07-4.61-1.99-6.85-3.27c-2.27-1.21-4.58-2.44-6.92-3.69c-1.16-0.62-2.34-1.25-3.52-1.87l-1.77-0.95l-1.72-1.05
	c-2.29-1.41-4.61-2.81-6.92-4.23c-2.33-1.41-4.66-2.8-6.86-4.4c-4.46-3.12-9.01-6.06-13.15-9.42c-2.1-1.62-4.18-3.24-6.24-4.82
	c-1.98-1.69-3.93-3.35-5.84-4.98c-0.96-0.82-1.9-1.62-2.85-2.42c-0.91-0.85-1.79-1.67-2.68-2.5c-0.08-0.07-0.16-0.15-0.24-0.23
	c15.68,5.63,31.5,9.72,47.04,13.17c18.25,4.04,36.16,7.14,53.39,10.51c17.17,3.38,33.8,6.95,48.4,12.24
	c3.64,1.32,7.13,2.76,10.41,4.33c3.27,1.56,6.4,3.31,9.02,5.06l1.29,0.86l0.32,0.22c0.16,0.11-0.22-0.15,0.08,0.06l0.58,0.42
	l2.35,1.7c1.58,1.13,3.12,2.25,4.59,3.44c3.04,2.3,5.9,4.7,8.72,7.12c11.13,9.65,20.18,20.38,25.14,31.25
	c2.56,5.42,3.82,10.83,4.21,16.03c0.1,2.59,0.01,5.16-0.36,7.67c-0.45,2.51-0.96,4.99-1.88,7.41c-1.67,4.85-4.41,9.48-7.61,13.81
	c-3.29,4.3-7.15,8.29-11.3,11.93c-8.34,7.26-17.78,13.08-27.12,17.75C518.89,321.07,500.6,325.97,485.65,328.58 M466.06,420.53
	c0.01,0.3-0.01,0.61,0,0.9c-0.81-0.22-1.61-0.42-2.47-0.65c-2.58-0.72-5.41-1.38-8.41-2.06c-3.01-0.73-6.22-1.39-9.61-2.07
	c-3.38-0.73-6.97-1.32-10.7-1.99c-3.73-0.67-7.64-1.19-11.67-1.83c-4.05-0.5-8.22-1.13-12.54-1.54c-8.61-0.98-17.72-1.66-27.14-2.18
	c-9.43-0.4-19.18-0.7-29.08-0.52c-4.96,0-9.94,0.27-14.95,0.41c-4.99,0.3-10.03,0.51-15.03,0.97c-10.03,0.75-20,1.99-29.77,3.47
	c-9.77,1.48-19.31,3.43-28.46,5.55c-9.12,2.28-17.89,4.66-26.02,7.49c-8.17,2.68-15.69,5.78-22.55,8.78
	c-3.41,1.54-6.61,3.15-9.69,4.62c-2.99,1.61-5.83,3.15-8.51,4.58c-2.61,1.54-5.01,3.04-7.26,4.39c-2.25,1.32-4.17,2.8-5.98,3.99
	c-2.3,1.5-4.16,2.91-5.71,4.11l-0.11-2.39c-0.65-15.65-1.02-31.2-0.23-46.52c5.98-8.9,14.17-16.43,23.65-22.46
	c10.09-6.46,21.52-11.31,33.4-15.04c11.89-3.73,24.28-6.39,36.84-8.27c12.56-1.92,25.3-3.02,38.1-3.66
	c25.62-1.19,51.43-0.35,77.09,1.93c12.83,1.14,25.63,2.65,38.33,4.57c6.35,0.96,12.68,2.02,18.91,3.25
	c3.12,0.61,6.22,1.25,9.25,1.95c1.52,0.35,3.01,0.72,4.46,1.1c0.16,0.05,0.32,0.08,0.48,0.13c0.28,0.84,0.55,1.67,0.79,2.59
	c0.29,0.97,0.53,2,0.76,3.05c0.23,1.04,0.48,2.06,0.68,3.15l0.59,3.2l0.48,3.27c0.35,2.17,0.57,4.4,0.81,6.62
	c0.28,2.19,0.4,4.46,0.58,6.7l0.24,3.36l0.13,3.39c0.07,2.27,0.23,4.51,0.23,6.79L466.06,420.53"/>
</svg>
