<svg id="Layer_1" data-name="Layer 1" xmlns="http://www.w3.org/2000/svg" viewBox="0 0 1263.21 331.41"><defs><style>.cls-1{fill:#fff}</style></defs><path id="path2612" class="cls-1" d="M142.44 331.25c-.66.43-1.53-.01-1.59-.79-.17-2.06-.36-4.1-.54-6.13l-1.76-17.54c-.04-.35.11-.69.38-.91 1.2-.95 2.62-2.03 4.34-3.19 1.48-1 3.03-2.22 4.88-3.33 1.83-1.13 3.78-2.39 5.91-3.67 2.17-1.2 4.49-2.49 6.92-3.84 2.51-1.23 5.1-2.58 7.88-3.87 5.58-2.51 11.68-5.12 18.33-7.38 6.59-2.39 13.72-4.42 21.12-6.36 7.43-1.82 15.16-3.5 23.09-4.8s16.01-2.4 24.14-3.11c4.05-.43 8.13-.64 12.17-.94 4.06-.17 8.09-.44 12.1-.48 8.01-.26 15.91-.1 23.52.13 7.61.33 14.96.78 21.89 1.49 3.47.3 6.83.77 10.08 1.12 3.24.47 6.38.85 9.36 1.35 2.99.51 5.86.94 8.55 1.49 2.71.51 5.27 1 7.65 1.56 2.39.51 4.62 1.02 6.66 1.55 1.49.38 2.88.72 4.16 1.07.45.12.75.53.76.99l.03 4.53c0 1.89.06 3.77 0 5.67l-.1 5.69c0 .18.17.69-.83.74l-.28.02c-.47.03-.95-.04-1.4-.19l-6.52-2.17-7.84-1.32-8.45-1.36-8.48-1.11-8.51-.87c-2.84-.21-5.68-.45-8.53-.63-2.85-.13-5.69-.3-8.54-.38-2.85-.04-5.69-.14-8.55-.14-2.85.04-5.7.02-8.54.11-2.85.12-5.69.17-8.53.35-5.68.33-11.35.8-17 1.43-5.65.65-11.28 1.44-16.87 2.39a298.02 298.02 0 0 0-33.11 7.62 301.086 301.086 0 0 0-31.92 11.25c-5.2 2.16-10.33 4.48-15.39 6.92-5.06 2.45-10.03 5.04-14.95 7.74-2.43 1.39-4.89 2.73-7.29 4.16-2.39 1.45-4.8 2.87-7.17 4.35l-1.23.79Zm247.13-141.53c-7.82 1.34-14.59 1.88-20.16 2.04 3.26-2.74 6.45-5.65 9.55-8.63 3.38-3.39 6.69-6.84 9.66-10.49.75-.91 1.5-1.8 2.22-2.72.7-.94 1.39-1.87 2.07-2.79 1.42-1.81 2.58-3.79 3.83-5.63 1.16-1.91 2.25-3.82 3.26-5.71.46-.97.92-1.93 1.38-2.87.23-.47.45-.94.67-1.41.2-.48.38-.96.56-1.44.73-1.91 1.5-3.73 1.96-5.6.26-.92.52-1.82.77-2.7.22-.89.35-1.79.52-2.65.16-.87.32-1.71.47-2.54.07-.84.14-1.66.21-2.46.06-.79.12-1.57.18-2.32.05-.75-.02-1.49-.03-2.19-.08-1.42-.01-2.73-.22-3.94-.18-1.2-.35-2.31-.5-3.3-.11-1-.39-1.86-.59-2.61-.21-.75-.38-1.39-.52-1.9-.28-1.03-.44-1.57-.44-1.57l.2 1.63c.06.52.14 1.18.23 1.94s.24 1.63.2 2.62c0 .98.01 2.07.01 3.25.03 1.18-.23 2.45-.35 3.8-.09.67-.12 1.37-.27 2.07-.16.7-.32 1.43-.49 2.16-.17.74-.35 1.49-.53 2.27-.26.75-.52 1.52-.79 2.31-.28.78-.52 1.59-.84 2.39-.36.79-.72 1.59-1.09 2.4-.67 1.65-1.63 3.24-2.56 4.89-.24.41-.46.83-.71 1.24-.27.4-.54.81-.81 1.21-.54.81-1.09 1.63-1.65 2.45-1.19 1.61-2.44 3.22-3.76 4.82-1.41 1.55-2.71 3.19-4.28 4.68-.75.76-1.51 1.53-2.28 2.3-.78.75-1.61 1.48-2.41 2.22-3.22 2.98-6.75 5.74-10.32 8.43-3.65 2.62-7.33 5.16-11.12 7.46-3.74 2.35-7.57 4.47-11.27 6.47-3.74 1.95-7.39 3.78-10.9 5.38-3.49 1.64-6.86 3.03-9.96 4.29a162.09 162.09 0 0 1-8.48 3.13c-.92.3-1.78.58-2.6.83-2.07-.21-4.15-.42-6.22-.6-7.65-.68-15.31-1.2-23-1.55-5.25-1.21-12.14-3-20.14-5.47-9.32-2.87-20.11-6.68-31.5-11.31a455.854 455.854 0 0 1-35.07-15.99c-23.4-11.88-45.8-25.97-60.3-39.13-7.24-6.54-12.45-12.91-14.82-18.03-1.21-2.55-1.72-4.73-1.87-6.23-.1-.75-.09-1.33-.07-1.73v-.6s-.03.2-.07.59c-.06.39-.12.98-.1 1.75 0 1.53.31 3.81 1.3 6.53 1.93 5.48 6.64 12.49 13.38 19.83 13.5 14.75 34.83 31.1 57.48 45.36 11.34 7.14 23.02 13.8 34.25 19.59 3.41 1.76 6.77 3.43 10.07 5.03-9.36.57-18.72 1.46-28.05 2.88-8.76 1.31-17.5 3.09-26.14 5.46-.46.02-.91.05-1.38.06-1.89.06-3.87.13-5.94.04-1.03-.02-2.09-.05-3.16-.07-1.07-.07-2.16-.14-3.27-.22-4.43-.26-9.13-.88-14.02-1.61-4.88-.8-9.94-1.76-15.08-2.95-5.14-1.14-10.37-2.51-15.6-3.89-10.47-2.81-20.98-5.93-31.02-8.46-5.02-1.27-9.93-2.39-14.65-3.21-4.7-.88-9.25-1.35-13.44-1.55-1.06-.02-2.08-.04-3.09-.05-1-.03-2 .09-2.95.13-1.92.04-3.73.38-5.42.62-1.68.29-3.23.77-4.65 1.12-1.38.54-2.65.98-3.76 1.47-1.06.57-2.02 1.08-2.84 1.53-.81.45-1.41.99-1.94 1.34l-1.58 1.15s.6-.33 1.71-.96c.57-.29 1.21-.74 2.06-1.09.85-.34 1.84-.73 2.93-1.16 1.13-.34 2.41-.62 3.77-.98 1.41-.18 2.91-.45 4.53-.54 1.64-.03 3.35-.16 5.18.02.91.07 1.84.07 2.79.21.95.13 1.92.26 2.91.4 3.95.66 8.19 1.61 12.6 3 4.42 1.32 9.01 2.95 13.73 4.77 9.45 3.62 19.43 7.93 29.63 12.02 5.12 2.03 10.25 4.05 15.43 5.87 5.15 1.86 10.35 3.5 15.45 4.98.05 0 .09.03.14.04-2.21 1.2-4.4 2.47-6.54 3.84-4.86 3.11-9.49 6.66-13.7 10.73-.31.3-.61.62-.92.93-6.46.87-14.79 1.62-24.8 1.71-13.25.13-29.44-.98-47.6-4.55-9.05-1.78-18.7-4.17-28.45-7.29-1.26-.41-2.54-.83-3.82-1.25l-1.93-.63-1.6-.58a47.43 47.43 0 0 1-6.42-3c-4.11-2.33-7.82-5.36-10.85-9.08-6.1-7.39-9.32-17.6-9.16-28.44.14-10.82 3.44-22.25 9.68-32.1 3.11-4.9 7.02-9.46 11.48-13.1 4.85-3.9 10.35-7.54 16.14-10.93 11.6-6.84 24.6-12.75 37.82-20.15 3.48-1.97 6.98-4.06 10.44-6.33-2.55 7.21-5.58 15.21-8.95 23.11-1.26 3-2.59 5.97-3.94 8.88-1.35 2.91-2.74 5.74-4.13 8.46-1.41 2.71-2.83 5.3-4.24 7.72a126.38 126.38 0 0 1-4.2 6.7c-.7 1-1.36 1.98-2.02 2.88-.68.89-1.32 1.74-1.92 2.54-1.28 1.53-2.39 2.89-3.41 3.91-.97 1.08-1.83 1.82-2.4 2.35s-.88.81-.88.81l.98-.69c.64-.45 1.61-1.09 2.72-2.04 1.17-.9 2.46-2.11 3.97-3.5.72-.73 1.49-1.5 2.29-2.31.8-.83 1.59-1.73 2.44-2.65 1.66-1.88 3.4-3.98 5.17-6.24 1.76-2.27 3.55-4.72 5.36-7.27 1.78-2.57 3.58-5.26 5.35-8.03 1.76-2.77 3.52-5.61 5.21-8.47 6.82-11.46 12.91-23.3 17.27-32.28 2.02-4.16 3.66-7.66 4.85-10.28 2.37-2.65 4.58-5.46 6.54-8.49l.77-1.16.85-1.35 1.44-2.27a243.533 243.533 0 0 1 9.2-13.36c4.29-5.83 8.87-11.47 13.72-16.88 9.7-10.79 20.59-20.66 32.67-28.25C182.31 5.39 195.69.27 208.91.02c6.59-.16 13.08.92 19.28 3.08a59.23 59.23 0 0 1 9.04 4.05c1.46.8 2.9 1.66 4.32 2.58 1.41.92 2.83 1.9 4.06 2.83.59.41 1.41 1.08 2.15 1.66l2.24 1.77c1.64 1.32 3.33 2.57 5.04 3.78.46.33.94.63 1.41.96l-.64.44s.39.47 1.14 1.35c.81.99 1.94 2.21 3.37 3.77 1.47 1.51 3.21 3.38 5.32 5.36 1.05 1 2.17 2.06 3.34 3.17 1.22 1.07 2.49 2.19 3.82 3.37a86.92 86.92 0 0 0 4.23 3.55c1.49 1.2 3.02 2.43 4.6 3.7 1.62 1.2 3.29 2.44 5 3.71.85.63 1.72 1.26 2.59 1.9.9.6 1.81 1.22 2.72 1.83 1.83 1.23 3.68 2.47 5.56 3.73 1.93 1.17 3.9 2.36 5.87 3.55 3.89 2.46 8.1 4.57 12.2 6.78 2.04 1.14 4.17 2.11 6.28 3.08 2.11.98 4.21 1.95 6.29 2.92l1.56.72 1.6.63c1.06.42 2.11.83 3.16 1.24 2.09.82 4.15 1.64 6.19 2.44 2 .86 4.09 1.42 6.07 2.09 1.99.65 3.95 1.28 5.84 1.9 3.75 1.34 7.48 2.1 10.83 3.01 1.68.43 3.29.84 4.83 1.23.76.2 1.51.39 2.23.57.74.14 1.45.27 2.15.4a13090.269 13090.269 0 0 0 13.41 2.5s-2.2-.67-6.05-1.86c-1.92-.59-4.25-1.31-6.93-2.13-.67-.21-1.36-.42-2.06-.64-.69-.26-1.41-.53-2.14-.81-1.46-.56-3-1.14-4.6-1.75-3.19-1.26-6.72-2.41-10.24-4.14-1.78-.81-3.61-1.64-5.47-2.49-1.85-.88-3.8-1.64-5.65-2.7-1.87-1-3.78-2.01-5.71-3.04-.96-.51-1.93-1.03-2.9-1.54l-1.46-.78-1.42-.87c-1.89-1.16-3.8-2.32-5.71-3.49-1.92-1.16-3.84-2.31-5.66-3.63-3.68-2.57-7.43-5-10.85-7.77-1.73-1.34-3.45-2.67-5.15-3.98-1.63-1.39-3.24-2.76-4.82-4.11-.79-.68-1.57-1.34-2.35-2l-2.21-2.06c-.07-.06-.13-.12-.2-.19 12.93 4.64 25.98 8.02 38.8 10.86 15.05 3.33 29.83 5.89 44.04 8.67 14.16 2.79 27.88 5.73 39.92 10.1 3 1.09 5.88 2.28 8.59 3.57 2.7 1.29 5.28 2.73 7.44 4.17l1.06.71.26.18c.13.09-.18-.12.07.05l.48.35 1.94 1.4c1.3.93 2.57 1.86 3.79 2.84 2.51 1.9 4.87 3.88 7.19 5.87 9.18 7.96 16.65 16.81 20.74 25.78 2.11 4.47 3.15 8.93 3.47 13.22.08 2.14.01 4.26-.3 6.33-.37 2.07-.79 4.12-1.55 6.11-1.38 4-3.64 7.82-6.28 11.39-2.71 3.55-5.9 6.84-9.32 9.84-6.88 5.99-14.67 10.79-22.37 14.64-15.41 7.76-30.5 11.8-42.83 13.95m-16.16 75.85c.01.25-.01.5 0 .74-.67-.18-1.33-.35-2.04-.54-2.13-.59-4.46-1.14-6.94-1.7-2.48-.6-5.13-1.15-7.93-1.71-2.79-.6-5.75-1.09-8.83-1.64-3.08-.55-6.3-.98-9.63-1.51-3.34-.41-6.78-.93-10.34-1.27-7.1-.81-14.62-1.37-22.39-1.8-7.78-.33-15.82-.58-23.99-.43-4.09 0-8.2.22-12.33.34-4.12.25-8.27.42-12.4.8-8.27.62-16.5 1.64-24.56 2.86-8.06 1.22-15.93 2.83-23.48 4.58-7.52 1.88-14.76 3.84-21.46 6.18-6.74 2.21-12.94 4.77-18.6 7.24-2.81 1.27-5.45 2.6-7.99 3.81-2.47 1.33-4.81 2.6-7.02 3.78-2.15 1.27-4.13 2.51-5.99 3.62-1.86 1.09-3.44 2.31-4.93 3.29-1.9 1.24-3.43 2.4-4.71 3.39l-.09-1.97c-.54-12.91-.84-25.74-.19-38.37 4.93-7.34 11.69-13.55 19.51-18.53 8.32-5.33 17.75-9.33 27.55-12.41 9.81-3.08 20.03-5.27 30.39-6.82 10.36-1.58 20.87-2.49 31.43-3.02 21.13-.98 42.42-.29 63.59 1.59 10.58.94 21.14 2.19 31.62 3.77 5.24.79 10.46 1.67 15.6 2.68 2.57.5 5.13 1.03 7.63 1.61 1.25.29 2.48.59 3.68.91.13.04.26.07.4.11.23.69.45 1.38.65 2.14.24.8.44 1.65.63 2.52.19.86.4 1.7.56 2.6l.49 2.64.4 2.7c.29 1.79.47 3.63.67 5.46.23 1.81.33 3.68.48 5.53l.2 2.77.11 2.8c.06 1.87.19 3.72.19 5.6l.06 5.66"/><g style="isolation:isolate"><path class="cls-1" d="m530.49 131.59 2.69-6.79c-8.74-.23-14.84-1.11-18.32-2.63-3.47-1.52-5.21-4.16-5.21-7.9 0-3.04 1.21-6.05 3.63-9.01 2.73-3.75 5.66-7.16 8.78-10.24 3.12-3.08 6.01-5.29 8.66-6.61 2.26-.94 5.38-1.4 9.36-1.4 9.67 0 20.64.55 32.89 1.64 2.81.16 5.15.27 7.02.35s3.9.2 6.09.35c5.15 0 8.43.1 9.83.29 1.4.2 3.08.68 5.03 1.46 1.33.47 2.46 1.17 3.39 2.11 1.95 2.03 2.93 5.22 2.93 9.59 0 8.11-2.8 13.3-8.4 15.56-3.27 1.4-6.22 2.32-8.86 2.75s-7.42.95-14.34 1.58l-12.71 41.92c6 0 10.87-.16 14.61-.47 2.34-.16 5.92-.23 10.75-.23 5.69 0 9.7.61 12.04 1.82s3.51 3.35 3.51 6.4c0 2.35-1.13 5.76-3.39 10.22s-4.72 8.03-7.37 10.69c-1.25 1.25-3 2.09-5.26 2.53-2.26.43-6.12.65-11.58.65h-4.56c-5.22 0-11.19.23-17.89.7-3.49 11.85-6.72 20.9-9.69 27.17-2.97 6.26-6.6 11.57-10.9 15.93-2.97 3.04-6.11 5.37-9.43 7s-6.43 2.45-9.31 2.45c-4.77 0-8.89-1.36-12.36-4.09-3.48-2.72-5.21-5.88-5.21-9.46 0-4.36 3.71-18.01 11.12-40.96 7.4-22.97 14.89-44.09 22.46-63.37ZM684.15 129.6c11.62 0 17.44 1.37 17.44 4.1 0 3.12-2.62 4.8-7.84 5.03-6.32.39-12.21 2.19-17.67 5.38-5.46 3.2-10.32 7.57-14.57 13.11s-7.57 11.78-9.95 18.72c-2.38 6.95-3.57 14.28-3.57 22 0 8.5 1.99 15.35 5.97 20.54 3.98 5.19 9.17 7.78 15.56 7.78 5.93 0 11.12-3.04 15.57-9.13 4.45-6.08 6.67-13.18 6.67-21.3 0-6.63-1.39-12.85-4.15-18.67-2.77-5.81-6.81-10.71-12.11-14.69-2.26-1.79-3.39-3.08-3.39-3.86 0-1.09 1.6-2.77 4.8-5.03 3.59-2.42 7.61-4.45 12.05-6.09s8.19-2.46 11.23-2.46c3.51 0 6.85.92 10.01 2.75s5.95 4.45 8.37 7.84 4.27 7.3 5.56 11.7c1.29 4.41 1.93 9.11 1.93 14.1 0 8.27-1.56 16.44-4.68 24.52s-7.22 14.61-12.29 19.6c-6.55 6.32-14.45 11.49-23.7 15.51s-18.04 6.03-26.39 6.03-16.17-1.4-24.17-4.21-14.34-6.51-19.02-11.12c-6.24-6.24-9.36-15.1-9.36-26.57 0-9.05 2.22-18.1 6.67-27.15 4.45-9.05 10.47-17.26 18.08-24.63s15.99-13.18 25.16-17.44c9.17-4.23 18.43-6.36 27.79-6.36ZM814.06 129.6c11.62 0 17.44 1.37 17.44 4.1 0 3.12-2.62 4.8-7.84 5.03-6.32.39-12.21 2.19-17.67 5.38-5.46 3.2-10.32 7.57-14.57 13.11s-7.57 11.78-9.95 18.72c-2.38 6.95-3.57 14.28-3.57 22 0 8.5 1.99 15.35 5.97 20.54 3.98 5.19 9.17 7.78 15.57 7.78 5.93 0 11.12-3.04 15.56-9.13 4.45-6.08 6.67-13.18 6.67-21.3 0-6.63-1.39-12.85-4.15-18.67-2.77-5.81-6.81-10.71-12.11-14.69-2.26-1.79-3.39-3.08-3.39-3.86 0-1.09 1.6-2.77 4.8-5.03 3.59-2.42 7.61-4.45 12.05-6.09s8.19-2.46 11.24-2.46c3.51 0 6.85.92 10.01 2.75s5.95 4.45 8.37 7.84 4.27 7.3 5.56 11.7c1.29 4.41 1.93 9.11 1.93 14.1 0 8.27-1.56 16.44-4.68 24.52s-7.22 14.61-12.29 19.6c-6.55 6.32-14.45 11.49-23.7 15.51s-18.04 6.03-26.39 6.03-16.17-1.4-24.17-4.21-14.34-6.51-19.02-11.12c-6.24-6.24-9.36-15.1-9.36-26.57 0-9.05 2.22-18.1 6.67-27.15 4.45-9.05 10.47-17.26 18.08-24.63s15.99-13.18 25.16-17.44c9.15-4.23 18.42-6.36 27.78-6.36ZM943.96 140.25l1.17-4.8c2.42-10.69 4.6-19.33 6.55-25.92s3.96-12.17 6.03-16.74c2.07-4.56 4.12-7.86 6.14-9.89 3.28-3.51 9.17-5.27 17.67-5.27 3.75 0 6.53.2 8.37.58 1.83.39 3.3 1.09 4.39 2.11-3.74 11.63-6.34 20.34-7.78 26.16-1.44 5.81-3.02 13.79-4.74 23.93-2.65 16.54-3.98 31.48-3.98 44.82 0 8.82.72 17.96 2.17 27.44 1.44 9.48 3.8 20.03 7.08 31.66-4.14 2.89-8.09 5.34-11.88 7.37s-7.37 3.63-10.77 4.8c-3.39 1.17-6.38 1.76-8.95 1.76-4.53 0-7.72-2.22-9.6-6.67-1.56-3.67-2.58-6.61-3.04-8.84s-1.29-8.41-2.46-18.55c-10.46 10.92-20.46 19.53-30.02 25.81-9.56 6.28-17.19 9.42-22.88 9.42-6.55 0-11.92-2.67-16.09-8.02-4.17-5.34-6.26-12.23-6.26-20.66 0-7.57 1.62-15.97 4.86-25.22s7.7-18.2 13.4-26.86c3.75-5.69 7.59-10.51 11.53-14.45s8.41-7.59 13.4-10.94c9.05-5.93 16.62-8.89 22.71-8.89 2.96.01 7.29 1.96 12.98 5.86Zm-3.63 55.59v-6.79c-3.98 3.51-6.94 5.27-8.89 5.27-1.09 0-1.64-.54-1.64-1.64 0-.47.23-1.44.7-2.93 1.64-4.68 2.46-9.21 2.46-13.58 0-6.32-1.37-12.87-4.1-19.66-1.17-3.51-2.62-5.27-4.33-5.27-.86 0-1.56.39-2.11 1.17-2.58 2.97-5.03 7.16-7.37 12.58s-4.27 11.31-5.79 17.67c-1.52 6.36-2.28 12-2.28 16.91 0 9.29 2.81 13.93 8.43 13.93 2.81 0 6.57-1.66 11.29-4.97 4.72-3.31 9.27-7.54 13.63-12.69ZM1020.48 248.5c-3.51-.23-6.7-1.83-9.59-4.8-2.88-3.12-4.93-6.5-6.14-10.12s-1.81-8.33-1.81-14.1c0-12.87 2.4-27.4 7.2-43.59s10.24-27.91 16.32-35.17c2.42-3.04 5.77-4.56 10.06-4.56 4.52 0 8.17 2.07 10.94 6.2s4.15 9.56 4.15 16.27c0 9.91-1.43 21.51-4.28 34.81s-6.86 27.13-12.02 41.48c-2.03 5.78-4.52 9.68-7.48 11.71-2.03 1.25-4.4 1.87-7.13 1.87h-.22Zm14.07-117.61c-7.34-.23-11-4.64-11-13.22 0-4.29 1.07-9.26 3.22-14.92 2.14-5.66 4.58-9.85 7.31-12.58 1.4-1.48 2.83-2.54 4.27-3.16 1.44-.62 3.29-.94 5.56-.94 3.9 0 6.77.96 8.6 2.87s2.75 5.09 2.75 9.54c0 5.54-.96 10.79-2.87 15.74-1.91 4.96-4.47 8.97-7.67 12.05s-6.48 4.62-9.83 4.62h-.34ZM1106.25 222.17l-.23 6.44c-1.09 15.53-2.5 28.17-4.21 37.92s-3.66 15.72-5.85 17.91c-2.96 3.2-7.6 4.8-13.91 4.8-6.78 0-11.65-1.33-14.61-3.98-1.17-1.33-1.95-2.54-2.34-3.63s-.58-3.08-.58-5.97v-3.62c.23-21.92 2.34-43.96 6.32-66.12s9.25-42.34 15.8-60.56 13.73-32.65 21.53-43.3 15.56-15.97 23.29-15.97c3.51 0 6.14 1.19 7.9 3.57s2.63 5.79 2.63 10.24c0 6.63-.7 13.67-2.11 21.12-1.4 7.45-3.1 13.52-5.09 18.2s-4 7.02-6.03 7.02c-1.87 0-2.81-3.28-2.81-9.83v-3.62c0-6.55-.14-10.84-.41-12.87s-.87-3.39-1.8-4.1c-.85 1.72-1.47 3.71-1.86 5.97-1.89 9.36-3.43 17.83-4.61 25.4-1.18 7.57-2.96 19.86-5.32 36.86-.08.94-.2 1.99-.36 3.16s-.28 2.22-.35 3.16h1.64c.94-.08 1.8-.13 2.58-.18.78-.04 2-.06 3.64-.06 2.97-.39 5.63-.59 7.98-.59 9.31 0 13.96 2.42 13.96 7.25 0 2.5-.88 5.52-2.64 9.07-1.76 3.55-3.85 6.49-6.27 8.83s-5.18 4.04-8.26 5.09-7.52 1.78-13.3 2.17c-1.25 0-2.13.02-2.64.06-.49.02-1.05.08-1.68.16ZM1226.2 167.05l1.52-5.03c2.03-7.8 5.12-13.81 9.26-18.02 2.65-2.65 5.7-4.84 9.13-6.55 3.44-1.72 6.56-2.58 9.37-2.58 5.15 0 7.73 2.19 7.73 6.55 0 2.19-.71 5.58-2.11 10.18-1.41 4.6-3.26 9.81-5.56 15.62s-5 12.19-8.08 19.13c-3.09 6.94-6.5 14.08-10.25 21.42-6.79 13.89-13.67 25.63-20.62 35.23-5 6.86-10.08 12.95-15.23 18.26-5.15 5.3-10.56 10.06-16.22 14.28-5.66 4.21-11.01 7.39-16.05 9.54s-9.67 3.22-13.88 3.22c-3.52 0-5.27-1.52-5.27-4.56 0-2.42.55-5.31 1.64-8.66 1.09-3.36 2.62-6.52 4.57-9.48 2.11-2.81 4.77-5.31 7.97-7.49 4.06-2.81 10.04-6.01 17.94-9.6-4.69-7.88-8.25-14.12-10.67-18.72s-5.08-10.34-7.97-17.2c-6.41-15.21-9.62-29.02-9.62-41.43 0-9.44 1.17-17.12 3.51-23.06 2.11-5.07 5.97-8.66 11.59-10.77 4.52-1.79 8.58-2.69 12.17-2.69 5.07 0 8.48 1.93 10.24 5.79s3.29 12.89 4.62 27.09c1.41 15.21 3.69 30.23 6.83 45.06.55 2.26 1.18 5.38 1.88 9.36h.47c2.11-4.6 4.41-10.18 6.91-16.74.78-1.87 3.51-8.78 8.2-20.71 2.67-7.18 4.66-12.99 5.98-17.44Z"/></g></svg>